<svg width="800" height="600" viewBox="0 0 800 600" fill="none" xmlns="http://www.w3.org/2000/svg">
  <rect width="800" height="600" rx="36" fill="#F4F9FB"/>
  <rect x="110" y="140" width="580" height="320" rx="24" fill="#E4EEF4"/>
  <rect x="150" y="185" width="120" height="240" rx="16" fill="#C9DDE6"/>
  <rect x="290" y="185" width="180" height="240" rx="16" fill="#A7C7D0"/>
  <rect x="490" y="185" width="140" height="240" rx="16" fill="#7FA9B4"/>
  <rect x="170" y="215" width="80" height="18" rx="9" fill="#F8FCFF"/>
  <rect x="170" y="245" width="80" height="18" rx="9" fill="#F8FCFF"/>
  <rect x="170" y="275" width="80" height="18" rx="9" fill="#F8FCFF"/>
  <rect x="320" y="220" width="120" height="16" rx="8" fill="#F8FCFF"/>
  <rect x="320" y="248" width="100" height="16" rx="8" fill="#F8FCFF"/>
  <rect x="520" y="220" width="80" height="16" rx="8" fill="#F8FCFF"/>
  <rect x="520" y="248" width="95" height="16" rx="8" fill="#F8FCFF"/>
  <path d="M220 140V95C220 79.536 232.536 67 248 67H292C307.464 67 320 79.536 320 95V140" stroke="#2F7F86" stroke-width="16" stroke-linecap="round"/>
  <rect x="250" y="90" width="40" height="24" rx="8" fill="#2F7F86"/>
  <circle cx="640" cy="160" r="34" fill="#2F7F86" fill-opacity="0.18"/>
  <path d="M585 454C617 434 650 432 688 454" stroke="#2F7F86" stroke-width="10" stroke-linecap="round"/>
</svg>