<?xml version="1.0" encoding="UTF-8"?>
<svg id="uuid-cbaaac3b-03e9-4b57-b371-b9d600c1bb48" data-name="Шар 2" xmlns="http://www.w3.org/2000/svg" viewBox="0 0 2014 1080">
  <defs>
    <style>
      .uuid-d0a954da-681d-4b2e-a5dc-2774eccb85f6 {
        fill: #0050a6;
      }

      .uuid-7e5827fa-8647-43f7-9bf6-3164fe36079c {
        fill: #ffc000;
      }
    </style>
  </defs>
  <g id="uuid-a57b2d78-6dc2-4972-8937-ebe7713caca1" data-name="Layer 1">
    <rect class="uuid-7e5827fa-8647-43f7-9bf6-3164fe36079c" width="2014" height="1080"/>
    <g>
      <path class="uuid-d0a954da-681d-4b2e-a5dc-2774eccb85f6" d="M1551.61,365.16c0-3.61-1.53-5.16-5.21-5.16h-60.96c-3.56,0-5.1,1.55-5.1,5.16v293.08c0,52.68,20.2,61.76,66.75,61.76,1.42,0,2.6-.16,3.67-1.26,1.04-.98.85-3.72.85-3.72v-349.86Z"/>
      <path class="uuid-d0a954da-681d-4b2e-a5dc-2774eccb85f6" d="M618.1,720c-3.62,0-5.16-1.54-5.16-5.18v-192.29c0-2.05-1.04-3.05-3.05-3.05h-15.43c-3.56,0-5.05-1.51-5.05-5.15v-42.57c0-3.52,1.49-5.11,5.05-5.11h15.43c2.01,0,3.05-1.03,3.05-3.04v-17.94c0-60,27.72-85.67,87.15-85.67h38.69c3.6,0,5.16,1.55,5.16,5.16v46.3c0,3.64-1.56,5.11-5.16,5.11h-26.36c-22.63,0-28.17,5.66-28.17,26.71v20.32c0,2.01,1,3.04,3.01,3.04h32.73c3.56,0,5.14,1.59,5.14,5.11v42.57c0,3.64-1.57,5.15-5.14,5.15h-32.73c-2.01,0-3.01,1-3.01,3.05v192.29c0,3.64-1.62,5.18-5.17,5.18h-60.99Z"/>
      <path class="uuid-d0a954da-681d-4b2e-a5dc-2774eccb85f6" d="M484.84,720c-3.56,0-5.14-1.53-5.14-5.18v-243.06c0-3.52,1.58-5.11,5.14-5.11h61.53c3.57,0,5.14,1.59,5.14,5.11v243.06c0,3.65-1.57,5.18-5.14,5.18h-61.53ZM484.84,416.18c-3.56,0-5.14-1.5-5.14-5.09v-45.93c0-3.61,1.58-5.16,5.14-5.16h61.53c3.57,0,5.14,1.55,5.14,5.16v45.93c0,3.58-1.57,5.09-5.14,5.09h-61.53Z"/>
      <path class="uuid-d0a954da-681d-4b2e-a5dc-2774eccb85f6" d="M1006.31,650.28c-5.15-14.9-7.05-34.94-7.05-59.55s1.9-44.63,7.05-59.44c14.37-45.68,53.87-70.28,107.25-70.28,40.95,0,75.34,18.52,93.77,46.67,1.5,2.58,1.5,5.14-1.02,7.22l-44.66,29.18c-3.05,2.03-5.61,1.58-7.62-1.01-10.32-14.33-23.61-21.53-39.5-21.53-20.05,0-32.81,8.74-38.45,26.64-3.1,8.71-4.62,23.13-4.62,42.56s1.52,33.83,4.62,42.61c5.64,17.91,18.4,26.64,38.45,26.64,15.89,0,29.18-7.14,39.5-21.51,2.01-2.54,4.57-3.09,7.62-1.03l44.66,29.25c2.52,2,2.52,4.58,1.02,7.21-18.43,28.11-52.82,46.62-93.77,46.62-53.38,0-92.89-24.63-107.25-70.23"/>
      <path class="uuid-d0a954da-681d-4b2e-a5dc-2774eccb85f6" d="M1373.74,564.63c2.1,0,3-1.07,3.07-3.08,0-6.68-.83-12.87-2.58-18.48-5.63-18.08-18.72-27.15-40.28-27.15-19.09,0-37.26,9.02-42.8,27.15-1.71,5.6-2.51,11.8-2.51,18.48,0,2.01.99,3.08,3,3.08h82.09ZM1226.03,649.8c-5.62-17.5-8.11-37.03-8.11-59.07s1.92-43.04,7.59-59.44c14.39-44.63,53.88-70.29,106.65-70.29s92.84,26.2,107.27,69.79c5.53,17.38,6.57,43.02,6.57,76.41,0,3.56-2.02,5.07-5.68,5.07h-147.34c-2.04,0-3.07,1.08-3.07,3.07.56,5.15.23,9.75,1.73,13.83,6.64,22.09,24.07,32.85,51.35,32.88,19.86.05,35.72-6.26,45.68-13.18,9.12-6.35,8.95-8.58,14.06-4.45l38.16,27.39c3.46,2.5,3.08,4.61.5,7.13-26.13,27.73-61.01,41.58-105.62,41.58-55.9,0-95.38-25.68-109.75-70.72"/>
      <path class="uuid-d0a954da-681d-4b2e-a5dc-2774eccb85f6" d="M900.8,564.63c2.08,0,3.08-1.07,3.08-3.08,0-6.68-.86-12.87-2.59-18.48-5.6-18.09-18.69-27.15-40.19-27.15-19.26,0-37.18,9.07-42.82,27.15-1.75,5.62-2.58,11.8-2.58,18.48,0,2.01.98,3.08,3.1,3.08h82ZM753.08,649.8c-5.59-17.5-8.1-37.03-8.1-59.07s1.95-43.04,7.62-59.44c14.37-44.63,53.86-70.29,106.67-70.29s92.82,26.2,107.16,69.79c5.6,17.38,6.63,43.02,6.63,76.41,0,3.56-2.02,5.07-5.6,5.07h-147.41c-2.02,0-2.99,1.08-2.99,3.07.42,5.15.2,9.75,1.74,13.83,6.61,22.09,24.02,32.85,51.27,32.88,19.95.05,35.75-6.26,45.76-13.18,9.07-6.35,8.83-8.42,14-4.45l38.17,27.39c3.39,2.5,3.07,4.61.56,7.13-26.22,27.73-61.03,41.58-105.63,41.58-55.97,0-95.5-25.68-109.85-70.72"/>
      <path class="uuid-d0a954da-681d-4b2e-a5dc-2774eccb85f6" d="M1654.71,365.16c0-3.61-1.55-5.16-5.19-5.16h-61.01c-3.56,0-5.12,1.55-5.12,5.16v293.08c0,52.68,20.24,61.76,66.71,61.76,1.45,0,2.59-.16,3.75-1.26.98-.98.87-3.72.87-3.72v-349.86Z"/>
      <path class="uuid-d0a954da-681d-4b2e-a5dc-2774eccb85f6" d="M431.27,365.16c0-3.61-1.53-5.16-5.21-5.16h-60.96c-3.56,0-5.1,1.55-5.1,5.16v293.08c0,52.68,20.2,61.76,66.75,61.76,1.42,0,2.6-.16,3.67-1.26,1.04-.98.85-3.72.85-3.72v-349.86Z"/>
    </g>
  </g>
</svg>