<svg width="800" height="600" viewBox="0 0 800 600" fill="none" xmlns="http://www.w3.org/2000/svg">
  <rect width="800" height="600" rx="36" fill="#F6FBFC"/>
  <rect x="140" y="150" width="520" height="300" rx="24" fill="#E7F0F3"/>
  <rect x="190" y="200" width="180" height="200" rx="18" fill="#FFFFFF" stroke="#C9DDE4" stroke-width="4"/>
  <rect x="406" y="200" width="200" height="200" rx="18" fill="#FFFFFF" stroke="#C9DDE4" stroke-width="4"/>
  <rect x="232" y="242" width="92" height="16" rx="8" fill="#2F7F86"/>
  <rect x="232" y="270" width="74" height="16" rx="8" fill="#6AA3AE"/>
  <rect x="232" y="298" width="96" height="16" rx="8" fill="#6AA3AE"/>
  <rect x="450" y="240" width="112" height="16" rx="8" fill="#2F7F86"/>
  <rect x="450" y="268" width="92" height="16" rx="8" fill="#6AA3AE"/>
  <rect x="450" y="296" width="84" height="16" rx="8" fill="#6AA3AE"/>
  <path d="M250 440L302 390" stroke="#5B8FBF" stroke-width="12" stroke-linecap="round"/>
  <path d="M518 438L470 388" stroke="#2F7F86" stroke-width="12" stroke-linecap="round"/>
  <circle cx="590" cy="172" r="36" fill="#2F7F86" fill-opacity="0.16"/>
</svg>